<svg xmlns="http://www.w3.org/2000/svg" width="32" height="32" viewBox="0 0 256 256"><path d="M128 42.667c-47.129 0-85.333 38.204-85.333 85.333 0 47.13 38.204 85.334 85.333 85.334 47.13 0 85.334-38.205 85.334-85.334 0-47.129-38.205-85.333-85.334-85.333zm0 28.444c31.42 0 56.89 25.469 56.89 56.89 0 31.42-25.47 56.888-56.89 56.888S71.111 159.421 71.111 128c0-31.42 25.469-56.889 56.89-56.889zm0 14.222c-7.854 0-14.222 6.368-14.222 14.223 0 7.854 6.368 14.222 14.222 14.222 7.854 0 14.222-6.368 14.222-14.222 0-7.855-6.368-14.223-14.222-14.223zm0 39.112c-5.891 0-10.667 4.775-10.667 10.666v24.89c0 5.89 4.776 10.666 10.667 10.666 5.892 0 10.667-4.775 10.667-10.667v-24.889c0-5.891-4.775-10.666-10.667-10.666z" fill="#a259ff" stroke-miterlimit="10" font-family="none" font-weight="none" font-size="none" text-anchor="none"/></svg>