<svg width="25" height="21" viewBox="0 0 25 21" fill="none" xmlns="http://www.w3.org/2000/svg"><path fill-rule="evenodd" clip-rule="evenodd" d="M20.9583 0.833496C22.9604 0.833496 24.5833 2.45646 24.5833 4.4585V6.87516C24.5833 7.54251 24.0423 8.0835 23.375 8.0835C22.0403 8.0835 20.9583 9.16547 20.9583 10.5002C20.9583 11.7742 21.9442 12.8179 23.1946 12.9102L23.5159 12.925C24.1169 12.9948 24.5833 13.5055 24.5833 14.1252V16.5418C24.5833 18.5439 22.9604 20.1668 20.9583 20.1668H4.04166C2.03962 20.1668 0.416656 18.5439 0.416656 16.5418V14.1252C0.416656 13.5055 0.883122 12.9948 1.48407 12.925L1.80535 12.9102C3.0558 12.8179 4.04166 11.7742 4.04166 10.5002C4.04166 9.16547 2.95968 8.0835 1.62499 8.0835C0.957646 8.0835 0.416656 7.54251 0.416656 6.87516V4.4585C0.416656 2.45646 2.03962 0.833496 4.04166 0.833496H20.9583ZM13.7083 3.25002H4.04165C3.3743 3.25002 2.83331 3.791 2.83331 4.45835V5.81895C4.91796 6.3555 6.45831 8.24788 6.45831 10.5C6.45831 12.7522 4.91796 14.6445 2.83331 15.1811V16.5417C2.83331 17.209 3.3743 17.75 4.04165 17.75H13.7083V16.5417C13.7083 15.8743 14.2493 15.3333 14.9166 15.3333C15.584 15.3333 16.125 15.8743 16.125 16.5417V17.75H20.9583C21.6257 17.75 22.1666 17.209 22.1666 16.5417V15.1811C20.082 14.6445 18.5416 12.7522 18.5416 10.5C18.5416 8.33129 19.97 6.49617 21.9373 5.8841L22.1666 5.81895V4.45835C22.1666 3.791 21.6257 3.25002 20.9583 3.25002H16.125V4.45835C16.125 5.12569 15.584 5.66668 14.9166 5.66668C14.2493 5.66668 13.7083 5.12569 13.7083 4.45835V3.25002ZM14.9167 8.0835C15.584 8.0835 16.125 8.62449 16.125 9.29183V11.7085C16.125 12.3758 15.584 12.9168 14.9167 12.9168C14.2493 12.9168 13.7083 12.3758 13.7083 11.7085V9.29183C13.7083 8.62449 14.2493 8.0835 14.9167 8.0835Z" fill="#777E90"></path></svg>
