<svg width="25" height="25" viewBox="0 0 25 25" fill="none" xmlns="http://www.w3.org/2000/svg"><path fill-rule="evenodd" clip-rule="evenodd" d="M0.770569 4.39542L4.39557 0.770417C4.86745 0.298533 5.63253 0.298533 6.10441 0.770417C6.57629 1.2423 6.57629 2.00737 6.10441 2.47926L2.47941 6.10426C2.00753 6.57614 1.24245 6.57614 0.770569 6.10426C0.298686 5.63237 0.298686 4.8673 0.770569 4.39542ZM20.6044 0.770417L24.2294 4.39542C24.7013 4.8673 24.7013 5.63237 24.2294 6.10426C23.7575 6.57614 22.9925 6.57614 22.5206 6.10426L18.8956 2.47926C18.4237 2.00737 18.4237 1.2423 18.8956 0.770417C19.3675 0.298533 20.1325 0.298533 20.6044 0.770417ZM12.5 24.583C18.5061 24.583 23.375 19.7141 23.375 13.708C23.375 7.70193 18.5061 2.83302 12.5 2.83302C6.4939 2.83302 1.625 7.70193 1.625 13.708C1.625 19.7141 6.4939 24.583 12.5 24.583ZM12.5 22.1662C7.82858 22.1662 4.04166 18.3793 4.04166 13.7079C4.04166 9.03647 7.82858 5.24954 12.5 5.24954C17.1714 5.24954 20.9583 9.03647 20.9583 13.7079C20.9583 18.3793 17.1714 22.1662 12.5 22.1662ZM12.5 7.6665C13.1673 7.6665 13.7083 8.20749 13.7083 8.87484V11.9993L15.7711 14.0621C16.243 14.534 16.243 15.299 15.7711 15.7709C15.2992 16.2428 14.5341 16.2428 14.0622 15.7709L11.6456 13.3543C11.419 13.1277 11.2917 12.8203 11.2917 12.4998V8.87484C11.2917 8.20749 11.8326 7.6665 12.5 7.6665Z" fill="#777E90"></path></svg>
